TITLE ""
FILE "1Q_t_0688-0700.mp3" MP3
  TRACK 01 AUDIO
    TITLE "1Q_t_0688-0700_01"
    INDEX 01 00:00:00
  TRACK 02 AUDIO
    TITLE "1Q_t_0688-0700_02"
    INDEX 01 00:01:08
  TRACK 03 AUDIO
    TITLE "1Q_t_0688-0700_03"
    INDEX 01 00:01:22
  TRACK 04 AUDIO
    TITLE "1Q_t_0688-0700_04"
    INDEX 01 00:03:44
  TRACK 05 AUDIO
    TITLE "1Q_t_0688-0700_05"
    INDEX 01 00:03:52
  TRACK 06 AUDIO
    TITLE "1Q_t_0688-0700_06"
    INDEX 01 00:08:31
  TRACK 07 AUDIO
    TITLE "1Q_t_0688-0700_07"
    INDEX 01 00:09:03
  TRACK 08 AUDIO
    TITLE "1Q_t_0688-0700_08"
    INDEX 01 00:10:20
  TRACK 09 AUDIO
    TITLE "1Q_t_0688-0700_09"
    INDEX 01 00:10:28
  TRACK 10 AUDIO
    TITLE "1Q_t_0688-0700_10"
    INDEX 01 00:13:44
  TRACK 11 AUDIO
    TITLE "1Q_t_0688-0700_11"
    INDEX 01 00:13:52
  TRACK 12 AUDIO
    TITLE "1Q_t_0688-0700_12"
    INDEX 01 00:18:42
  TRACK 13 AUDIO
    TITLE "1Q_t_0688-0700_13"
    INDEX 01 00:19:15
  TRACK 14 AUDIO
    TITLE "1Q_t_0688-0700_14"
    INDEX 01 00:20:27
  TRACK 15 AUDIO
    TITLE "1Q_t_0688-0700_15"
    INDEX 01 00:20:38
  TRACK 16 AUDIO
    TITLE "1Q_t_0688-0700_16"
    INDEX 01 00:23:11
  TRACK 17 AUDIO
    TITLE "1Q_t_0688-0700_17"
    INDEX 01 00:23:23
  TRACK 18 AUDIO
    TITLE "1Q_t_0688-0700_18"
    INDEX 01 00:27:68
  TRACK 19 AUDIO
    TITLE "1Q_t_0688-0700_19"
    INDEX 01 00:28:56
  TRACK 20 AUDIO
    TITLE "1Q_t_0688-0700_20"
    INDEX 01 00:29:61
  TRACK 21 AUDIO
    TITLE "1Q_t_0688-0700_21"
    INDEX 01 00:29:71
  TRACK 22 AUDIO
    TITLE "1Q_t_0688-0700_22"
    INDEX 01 00:31:27
  TRACK 23 AUDIO
    TITLE "1Q_t_0688-0700_23"
    INDEX 01 00:31:34
  TRACK 24 AUDIO
    TITLE "1Q_t_0688-0700_24"
    INDEX 01 00:36:55
  TRACK 25 AUDIO
    TITLE "1Q_t_0688-0700_25"
    INDEX 01 00:37:35
  TRACK 26 AUDIO
    TITLE "1Q_t_0688-0700_26"
    INDEX 01 00:38:48
  TRACK 27 AUDIO
    TITLE "1Q_t_0688-0700_27"
    INDEX 01 00:38:54
  TRACK 28 AUDIO
    TITLE "1Q_t_0688-0700_28"
    INDEX 01 00:40:59
  TRACK 29 AUDIO
    TITLE "1Q_t_0688-0700_29"
    INDEX 01 00:40:65
  TRACK 30 AUDIO
    TITLE "1Q_t_0688-0700_30"
    INDEX 01 00:45:33
  TRACK 31 AUDIO
    TITLE "1Q_t_0688-0700_31"
    INDEX 01 00:46:06
  TRACK 32 AUDIO
    TITLE "1Q_t_0688-0700_32"
    INDEX 01 00:47:35
  TRACK 33 AUDIO
    TITLE "1Q_t_0688-0700_33"
    INDEX 01 00:47:43
  TRACK 34 AUDIO
    TITLE "1Q_t_0688-0700_34"
    INDEX 01 00:50:16
  TRACK 35 AUDIO
    TITLE "1Q_t_0688-0700_35"
    INDEX 01 00:50:22
  TRACK 36 AUDIO
    TITLE "1Q_t_0688-0700_36"
    INDEX 01 00:54:67
  TRACK 37 AUDIO
    TITLE "1Q_t_0688-0700_37"
    INDEX 01 00:55:39
  TRACK 38 AUDIO
    TITLE "1Q_t_0688-0700_38"
    INDEX 01 00:56:40
  TRACK 39 AUDIO
    TITLE "1Q_t_0688-0700_39"
    INDEX 01 00:56:48
  TRACK 40 AUDIO
    TITLE "1Q_t_0688-0700_40"
    INDEX 01 00:57:61
  TRACK 41 AUDIO
    TITLE "1Q_t_0688-0700_41"
    INDEX 01 00:57:67
  TRACK 42 AUDIO
    TITLE "1Q_t_0688-0700_42"
    INDEX 01 01:01:33
  TRACK 43 AUDIO
    TITLE "1Q_t_0688-0700_43"
    INDEX 01 01:02:06
  TRACK 44 AUDIO
    TITLE "1Q_t_0688-0700_44"
    INDEX 01 01:03:27
  TRACK 45 AUDIO
    TITLE "1Q_t_0688-0700_45"
    INDEX 01 01:03:36
  TRACK 46 AUDIO
    TITLE "1Q_t_0688-0700_46"
    INDEX 01 01:05:47
  TRACK 47 AUDIO
    TITLE "1Q_t_0688-0700_47"
    INDEX 01 01:05:55
  TRACK 48 AUDIO
    TITLE "1Q_t_0688-0700_48"
    INDEX 01 01:10:38
  TRACK 49 AUDIO
    TITLE "1Q_t_0688-0700_49"
    INDEX 01 01:11:08
  TRACK 50 AUDIO
    TITLE "1Q_t_0688-0700_50"
    INDEX 01 01:12:24
  TRACK 51 AUDIO
    TITLE "1Q_t_0688-0700_51"
    INDEX 01 01:12:31
  TRACK 52 AUDIO
    TITLE "1Q_t_0688-0700_52"
    INDEX 01 01:16:06
  TRACK 53 AUDIO
    TITLE "1Q_t_0688-0700_53"
    INDEX 01 01:16:17
  TRACK 54 AUDIO
    TITLE "1Q_t_0688-0700_54"
    INDEX 01 01:22:20
  TRACK 55 AUDIO
    TITLE "1Q_t_0688-0700_55"
    INDEX 01 01:22:67
  TRACK 56 AUDIO
    TITLE "1Q_t_0688-0700_56"
    INDEX 01 01:24:19
  TRACK 57 AUDIO
    TITLE "1Q_t_0688-0700_57"
    INDEX 01 01:24:42
  TRACK 58 AUDIO
    TITLE "1Q_t_0688-0700_58"
    INDEX 01 01:27:31
  TRACK 59 AUDIO
    TITLE "1Q_t_0688-0700_59"
    INDEX 01 01:27:37
  TRACK 60 AUDIO
    TITLE "1Q_t_0688-0700_60"
    INDEX 01 01:32:75
  TRACK 61 AUDIO
    TITLE "1Q_t_0688-0700_61"
    INDEX 01 01:33:57
  TRACK 62 AUDIO
    TITLE "1Q_t_0688-0700_62"
    INDEX 01 01:34:54
  TRACK 63 AUDIO
    TITLE "1Q_t_0688-0700_63"
    INDEX 01 01:34:64
  TRACK 64 AUDIO
    TITLE "1Q_t_0688-0700_64"
    INDEX 01 01:36:53
  TRACK 65 AUDIO
    TITLE "1Q_t_0688-0700_65"
    INDEX 01 01:36:63
  TRACK 66 AUDIO
    TITLE "1Q_t_0688-0700_66"
    INDEX 01 01:40:49
  TRACK 67 AUDIO
    TITLE "1Q_t_0688-0700_67"
    INDEX 01 01:41:19
  TRACK 68 AUDIO
    TITLE "1Q_t_0688-0700_68"
    INDEX 01 01:42:31
  TRACK 69 AUDIO
    TITLE "1Q_t_0688-0700_69"
    INDEX 01 01:43:01
  TRACK 70 AUDIO
    TITLE "1Q_t_0688-0700_70"
    INDEX 01 01:44:29
  TRACK 71 AUDIO
    TITLE "1Q_t_0688-0700_71"
    INDEX 01 01:44:41
  TRACK 72 AUDIO
    TITLE "1Q_t_0688-0700_72"
    INDEX 01 01:48:60
  TRACK 73 AUDIO
    TITLE "1Q_t_0688-0700_73"
    INDEX 01 01:48:68
  TRACK 74 AUDIO
    TITLE "1Q_t_0688-0700_74"
    INDEX 01 01:55:45
  TRACK 75 AUDIO
    TITLE "1Q_t_0688-0700_75"
    INDEX 01 01:56:17
  TRACK 76 AUDIO
    TITLE "1Q_t_0688-0700_76"
    INDEX 01 01:57:16
  TRACK 77 AUDIO
    TITLE "1Q_t_0688-0700_77"
    INDEX 01 01:57:22
  TRACK 78 AUDIO
    TITLE "1Q_t_0688-0700_78"
    INDEX 01 01:59:68
  TRACK 79 AUDIO
    TITLE "1Q_t_0688-0700_79"
    INDEX 01 02:00:01
  TRACK 80 AUDIO
    TITLE "1Q_t_0688-0700_80"
    INDEX 01 02:05:61
